<svg xmlns="http://www.w3.org/2000/svg" viewBox="0 0 32 32">
  <defs>
    <linearGradient id="f" x1="16" y1="4" x2="16" y2="28" gradientUnits="userSpaceOnUse">
      <stop offset="0" stop-color="#fdba74"/>
      <stop offset="0.55" stop-color="#fb923c"/>
      <stop offset="1" stop-color="#ef4444"/>
    </linearGradient>
  </defs>
  <rect width="32" height="32" rx="7" fill="#020617"/>
  <rect x="0.5" y="0.5" width="31" height="31" rx="6.5" fill="none" stroke="#f97316" stroke-opacity="0.45"/>
  <path
    d="M16 4.5c.4 3.6-1.4 5.3-3.6 7.4-2.3 2.2-4.4 4.5-4.4 8.1 0 4.5 3.6 7.5 8 7.5s8-3 8-7.5c0-2.9-1.3-4.9-2.8-6.6-.4 1.2-1.2 2.1-2.2 2.6.6-4.2-1-8.3-3-11.5z"
    fill="url(#f)"
  />
  <path
    d="M16 17.2c.3 1.9-1.1 2.7-1.1 4.4 0 1.4 1 2.4 2.3 2.4s2.3-1 2.3-2.5c0-1.7-1.4-3-2.4-4.3-.3.7-.7 1.1-1.1 1.4z"
    fill="#fef3c7"
  />
</svg>
